<svg xmlns="http://www.w3.org/2000/svg" xmlns:xlink="http://www.w3.org/1999/xlink" viewBox="0 0 227.29 214.26"><defs><style>.cls-1{fill:#1d1d1b;}.cls-2{fill:url(#Degradado_sin_nombre_49);}</style><linearGradient id="Degradado_sin_nombre_49" y1="107.13" x2="227.29" y2="107.13" gradientUnits="userSpaceOnUse"><stop offset="0" stop-color="#706f6f"/><stop offset="0.01" stop-color="#706f6f"/><stop offset="0.22" stop-color="#706f6f"/><stop offset="0.25" stop-color="#6b6a6a"/><stop offset="0.46" stop-color="#515150"/><stop offset="0.64" stop-color="#424141"/><stop offset="0.78" stop-color="#3c3c3b"/><stop offset="1" stop-color="#3c3c3b"/></linearGradient></defs><g id="Capa_2" data-name="Capa 2"><g id="Capa_1-2" data-name="Capa 1"><rect class="cls-1" x="23.58" y="112.69" width="22.53" height="12.95"/><polygon class="cls-1" points="59.59 79.7 53.7 79.7 53.42 78.7 39.75 78.7 39.75 79.7 39.75 91.56 39.75 92.7 61.19 92.7 59.59 79.7"/><path class="cls-1" d="M149.83,112.7v13H126.51l-7.09,40H102.34l7.1-40H85.8l-7.23,40H61.71l7.23-40H45.83v-13H71.19l3.53-20H51.83v-14H77.58l6.81-38h16.5l-6.37,38H118.1l6.68-38h16.93l-6.45,38h20.57v14H131.15l-3.77,20Zm-34.22-20h-24L88,112.7H112Z"/><path class="cls-2" d="M115.94,0a112.54,112.54,0,0,1,42.39,8.12,114.54,114.54,0,0,1,35.5,22.33,107.73,107.73,0,0,1,24.39,33.49,97.19,97.19,0,0,1,9.07,41.84,102.49,102.49,0,0,1-9.07,43.08,109,109,0,0,1-24.52,34.39A112.7,112.7,0,0,1,157.44,206a119.36,119.36,0,0,1-44.31,8.23,123.61,123.61,0,0,1-44.43-7.89,107.27,107.27,0,0,1-35.88-22.22A104.53,104.53,0,0,1,8.81,150Q0,130.14,0,106.23a99.24,99.24,0,0,1,8.81-41.5A104.31,104.31,0,0,1,33.07,31,115.48,115.48,0,0,1,69.72,8.35,124.91,124.91,0,0,1,115.94,0Zm-3.32,11.05q-17.62,0-31.28,6.66a63.29,63.29,0,0,0-23,18.94Q49,49,44.18,66.42t-4.85,39.36a155.2,155.2,0,0,0,4.72,39.58q4.73,17.94,14.05,30.9a64.47,64.47,0,0,0,23.11,20.07q13.79,7.11,31.67,7.11A80.25,80.25,0,0,0,142.63,198a63,63,0,0,0,23.88-16.81q10.2-11.39,16-29.09t5.74-42.29q0-23.24-4.72-41.61T169.19,37.1a62.63,62.63,0,0,0-23.75-19.39Q131.27,11,112.62,11.05Z"/></g></g></svg>