<?xml version="1.0" standalone="no"?>
<!DOCTYPE svg PUBLIC "-//W3C//DTD SVG 20010904//EN"
 "http://www.w3.org/TR/2001/REC-SVG-20010904/DTD/svg10.dtd">
<svg version="1.0" xmlns="http://www.w3.org/2000/svg"
 width="908.000000pt" height="908.000000pt" viewBox="0 0 908.000000 908.000000"
 preserveAspectRatio="xMidYMid meet">
<metadata>
Created by potrace 1.14, written by Peter Selinger 2001-2017
</metadata>
<g transform="translate(0.000000,908.000000) scale(0.100000,-0.100000)"
fill="#000000" stroke="none">
<path d="M4339 8816 c-2 -3 -51 -7 -109 -10 -58 -4 -121 -8 -140 -10 -96 -10
-157 -17 -180 -21 -27 -5 -101 -16 -137 -20 -12 -2 -36 -6 -53 -10 -17 -4 -41
-8 -53 -10 -12 -1 -49 -8 -82 -15 -33 -7 -69 -14 -80 -16 -11 -1 -20 -3 -20
-4 0 -1 -7 -3 -16 -5 -8 -1 -53 -13 -100 -25 -46 -12 -93 -24 -104 -26 -27 -7
-37 -10 -55 -17 -8 -3 -50 -15 -93 -27 -42 -12 -93 -28 -112 -36 -19 -8 -37
-14 -40 -14 -6 -1 -28 -7 -52 -17 -10 -3 -22 -7 -28 -9 -60 -19 -111 -39 -113
-46 -2 -4 -9 -8 -16 -8 -38 0 -532 -230 -582 -271 -6 -5 -31 -20 -55 -33 -54
-28 -89 -48 -103 -59 -6 -4 -76 -51 -156 -104 -80 -53 -147 -99 -150 -102 -3
-4 -30 -24 -60 -46 -30 -22 -60 -44 -66 -50 -6 -5 -26 -22 -45 -37 -19 -14
-45 -36 -59 -48 -14 -11 -52 -44 -85 -73 -66 -57 -297 -286 -360 -358 -44 -49
-120 -141 -163 -194 -7 -10 -101 -136 -149 -202 -13 -17 -23 -37 -23 -43 0 -6
-6 -13 -14 -16 -8 -3 -17 -13 -20 -22 -6 -19 -28 -54 -37 -62 -11 -8 -169
-291 -169 -301 0 -5 -4 -9 -10 -9 -5 0 -9 -3 -8 -7 1 -5 -23 -60 -53 -123 -48
-99 -74 -159 -120 -277 -5 -13 -13 -33 -18 -45 -20 -51 -33 -87 -32 -92 0 -3
-6 -21 -15 -41 -8 -19 -11 -35 -8 -35 4 0 1 -6 -5 -14 -7 -8 -13 -22 -15 -32
-3 -11 -14 -53 -26 -94 -25 -90 -60 -233 -75 -310 -4 -24 -17 -93 -21 -120
-21 -117 -23 -133 -42 -335 -3 -44 -7 -199 -6 -345 0 -280 6 -391 28 -565 2
-16 6 -51 9 -77 10 -91 60 -344 88 -453 16 -60 31 -117 33 -126 12 -46 29
-106 36 -124 4 -11 18 -49 30 -85 31 -91 67 -185 97 -255 43 -98 173 -368 191
-395 9 -14 17 -27 17 -30 3 -28 303 -481 345 -520 3 -3 17 -21 31 -40 15 -19
35 -45 45 -57 11 -12 28 -32 38 -45 69 -84 255 -277 356 -368 69 -63 91 -82
145 -128 126 -107 411 -312 433 -312 6 0 12 -4 14 -10 5 -15 250 -155 398
-227 252 -123 247 -121 690 -276 23 -8 284 -76 319 -83 7 -1 36 -8 65 -15 28
-7 55 -12 59 -11 4 1 16 -2 25 -7 9 -5 40 -11 67 -14 28 -3 57 -8 65 -11 8 -3
35 -8 60 -11 25 -3 56 -8 70 -10 73 -12 184 -26 245 -31 28 -2 91 -7 140 -11
185 -15 694 -8 865 11 19 3 62 7 95 10 33 3 71 8 85 10 21 4 62 10 140 21 8 1
29 5 45 8 17 4 44 9 60 12 39 6 60 11 115 24 25 7 60 14 79 17 19 2 38 7 43
10 5 3 21 7 36 9 47 6 349 97 442 133 8 3 17 6 20 7 3 1 14 5 25 10 11 4 49
18 85 31 36 14 79 31 95 38 17 7 41 18 55 23 14 6 51 22 82 37 31 14 60 26 63
26 4 0 19 9 33 19 15 10 30 19 35 20 20 2 183 89 320 170 43 25 86 51 96 56
22 13 192 127 211 142 8 6 56 42 105 79 110 83 99 75 160 125 258 215 538 509
688 721 23 32 45 58 49 58 4 0 8 6 8 14 0 8 3 16 8 18 6 2 54 73 122 178 5 8
20 31 33 50 22 34 48 77 90 150 11 19 51 96 89 170 38 74 73 140 78 147 6 7
10 16 10 22 0 5 14 40 31 78 83 183 179 475 234 708 1 6 5 21 8 35 8 28 16 73
22 110 2 14 6 36 9 50 12 61 26 149 31 195 3 28 7 61 10 75 19 96 28 676 12
845 -10 115 -24 227 -31 264 -3 12 -8 42 -11 65 -3 22 -9 57 -13 76 -5 19 -9
37 -9 40 -9 61 -46 211 -83 340 -11 36 -19 67 -19 70 1 5 -25 73 -46 125 -5
11 -9 22 -10 25 -5 20 -30 91 -42 120 -8 19 -19 44 -23 55 -45 107 -153 330
-162 333 -4 2 -8 12 -8 23 0 10 -3 19 -8 19 -4 0 -15 17 -25 38 -10 20 -26 51
-37 67 -10 17 -25 41 -33 55 -26 48 -42 75 -47 80 -3 3 -25 37 -50 75 -25 39
-47 72 -50 75 -3 3 -19 25 -35 50 -17 25 -40 56 -52 70 -13 14 -23 30 -23 37
0 6 -4 13 -9 15 -5 2 -36 38 -70 81 -174 220 -454 501 -649 652 -7 6 -18 15
-25 20 -26 23 -214 162 -257 190 -25 17 -49 34 -55 38 -57 47 -417 257 -439
257 -8 0 -16 4 -18 8 -3 8 -213 112 -258 127 -4 2 -48 20 -105 44 -11 5 -47
19 -80 32 -33 12 -64 26 -69 31 -6 4 -20 8 -32 8 -13 0 -26 5 -29 10 -3 6 -15
10 -26 10 -10 0 -27 4 -37 9 -9 6 -42 17 -72 26 -30 9 -62 19 -70 22 -8 3 -19
7 -25 8 -5 0 -17 4 -25 7 -15 6 -123 35 -161 44 -10 2 -29 7 -41 10 -13 3 -32
7 -43 9 -11 1 -40 8 -65 15 -25 7 -54 13 -65 15 -23 3 -128 22 -165 29 -14 3
-47 8 -75 11 -64 8 -121 15 -165 21 -19 2 -62 6 -95 9 -82 7 -680 16 -686 11z
m496 -450 c17 -2 55 -7 85 -11 58 -6 103 -12 158 -20 18 -2 79 -14 135 -26 56
-12 113 -23 126 -26 13 -2 34 -9 45 -15 12 -6 22 -10 24 -9 6 6 152 -43 262
-87 169 -67 425 -205 520 -279 8 -6 47 -35 85 -64 161 -122 339 -302 470 -474
24 -33 49 -64 53 -70 22 -27 112 -165 112 -171 0 -4 6 -15 14 -23 25 -29 139
-247 195 -373 68 -152 155 -401 197 -560 1 -5 2 -9 4 -10 1 -2 3 -12 5 -23 2
-11 9 -40 15 -65 18 -70 21 -84 25 -105 2 -11 13 -63 24 -115 11 -52 22 -108
25 -125 3 -16 7 -39 9 -50 3 -11 8 -40 11 -65 3 -25 8 -54 10 -65 2 -11 7 -49
11 -85 12 -93 13 -105 15 -105 1 0 3 -20 5 -45 4 -51 13 -156 20 -212 8 -70
18 -273 19 -400 0 -71 5 -128 9 -128 4 0 4 -8 -2 -17 -5 -10 -5 -26 0 -40 5
-13 5 -23 1 -23 -9 0 -7 -58 2 -67 3 -3 1 -14 -4 -24 -7 -11 -7 -20 0 -24 6
-3 6 -15 0 -30 -6 -15 -6 -27 1 -30 5 -4 7 -10 4 -15 -3 -5 -8 -73 -10 -152
-5 -145 -9 -218 -21 -343 -4 -38 -8 -89 -8 -112 -1 -24 -3 -43 -6 -43 -3 0 -5
-12 -6 -27 -2 -47 -30 -251 -38 -274 -3 -8 -7 -32 -10 -54 -5 -42 -12 -75 -20
-103 -3 -9 -8 -30 -11 -47 -5 -31 -19 -96 -24 -112 -1 -2 -2 -6 -2 -10 -1 -5
-10 -39 -21 -78 -11 -38 -21 -77 -23 -85 -2 -8 -15 -48 -28 -87 -14 -40 -23
-73 -20 -73 3 0 1 -6 -4 -12 -6 -7 -16 -31 -23 -53 -7 -22 -20 -56 -28 -75 -8
-19 -14 -35 -13 -35 5 0 -66 -160 -117 -265 -75 -156 -224 -406 -277 -466 -5
-7 -19 -24 -30 -40 -58 -81 -184 -223 -270 -305 -99 -94 -136 -125 -220 -188
-103 -77 -193 -141 -199 -141 -2 0 -33 -17 -67 -38 -171 -104 -481 -229 -684
-277 -61 -14 -163 -37 -182 -41 -13 -2 -35 -6 -50 -9 -77 -16 -176 -29 -308
-41 -151 -14 -547 -8 -680 10 -41 6 -121 18 -145 22 -14 2 -41 7 -60 10 -109
17 -388 100 -487 145 -24 10 -45 19 -49 19 -3 0 -56 25 -117 56 -95 48 -137
71 -229 129 -9 6 -44 29 -77 52 -33 24 -65 43 -70 43 -5 0 -11 4 -13 9 -1 5
-43 41 -93 82 -99 80 -257 236 -320 314 -22 27 -50 61 -63 75 -12 14 -35 43
-50 65 -15 22 -29 42 -32 45 -14 14 -110 161 -110 168 0 5 -9 17 -20 27 -11
10 -18 20 -15 23 3 3 -1 12 -9 21 -7 9 -29 45 -48 81 -19 36 -41 76 -49 90 -7
14 -14 27 -14 30 -1 3 -23 50 -50 105 -26 55 -48 106 -48 113 0 6 -4 12 -9 12
-4 0 -7 3 -6 8 1 4 -6 25 -15 47 -28 64 -110 299 -111 318 0 9 -3 17 -6 17 -3
0 -6 8 -7 18 -1 9 -8 37 -17 62 -14 44 -54 196 -62 235 -2 11 -6 36 -9 55 -3
19 -8 42 -11 50 -4 8 -8 24 -10 35 -10 56 -13 75 -23 130 -6 33 -14 76 -16 95
-3 19 -8 46 -12 60 -3 14 -6 28 -5 32 1 5 -4 46 -12 92 -7 47 -10 88 -7 93 7
10 42 10 58 0 6 -4 14 -3 18 2 3 6 15 7 28 2 12 -5 34 -5 49 0 16 4 28 4 28 1
0 -9 64 -7 79 3 6 3 11 3 11 -2 0 -9 67 -9 77 0 3 4 11 3 17 0 15 -10 106 -10
106 0 0 4 8 4 18 -1 21 -9 234 -8 250 2 7 4 12 4 12 -1 0 -10 62 -9 78 1 7 4
12 3 12 -1 0 -5 26 -7 58 -6 31 2 64 3 72 3 8 0 48 -1 88 -1 l73 -1 -7 -46
c-8 -65 -12 -87 -14 -87 -2 0 -8 -34 -15 -85 -3 -25 -8 -52 -10 -60 -2 -8 -7
-28 -10 -45 -2 -16 -9 -55 -15 -85 -5 -30 -12 -71 -15 -90 -3 -19 -10 -53 -15
-75 -5 -22 -11 -58 -14 -80 -4 -23 -9 -52 -11 -65 -3 -14 -12 -63 -20 -110 -9
-47 -17 -92 -20 -100 -2 -8 -7 -33 -10 -55 -3 -23 -8 -52 -10 -65 -3 -14 -8
-38 -10 -55 -3 -16 -22 -118 -42 -225 -19 -107 -38 -212 -40 -232 -5 -37 -4
-37 30 -36 18 1 39 -2 45 -6 6 -3 13 -2 17 4 4 6 10 8 15 5 5 -3 53 -6 107 -6
54 0 171 1 261 1 89 0 167 -2 172 -5 11 -7 20 8 26 43 5 36 16 93 21 112 2 8
5 31 8 50 2 19 4 35 5 35 2 0 7 26 14 72 3 21 12 70 20 108 8 39 17 88 20 110
3 22 10 63 15 90 5 28 13 67 16 89 4 21 9 48 11 60 7 32 12 57 18 96 3 19 8
46 11 60 3 14 10 53 15 88 6 35 17 92 24 127 7 36 11 67 8 70 -3 3 0 5 7 5 7
0 9 5 6 10 -4 6 -2 32 4 58 6 26 13 63 15 82 3 19 5 35 6 35 1 0 3 11 5 25 2
14 6 39 9 55 3 17 9 46 13 65 3 19 7 40 7 45 1 6 26 11 56 13 63 2 53 3 190
-1 58 -1 113 1 123 6 9 4 17 4 17 0 0 -9 67 -9 77 0 3 4 11 3 17 0 15 -10 106
-10 106 0 0 4 8 4 18 -1 21 -9 234 -8 250 2 7 4 12 4 12 -1 0 -4 18 -7 40 -7
22 1 40 -1 40 -5 0 -5 -11 -68 -25 -141 -13 -73 -22 -137 -19 -142 3 -4 1 -8
-3 -8 -5 0 -9 -8 -9 -17 -1 -10 -4 -36 -8 -58 -4 -22 -9 -53 -12 -70 -2 -16
-9 -52 -14 -80 -5 -27 -12 -63 -15 -80 -5 -33 -12 -67 -20 -105 -3 -14 -8 -43
-10 -65 -5 -42 -12 -80 -15 -80 -1 0 -4 -11 -5 -25 -2 -14 -6 -36 -9 -50 -2
-14 -7 -43 -10 -65 -3 -22 -8 -51 -11 -65 -3 -14 -8 -41 -11 -60 -4 -19 -9
-44 -11 -55 -2 -11 -6 -33 -8 -50 -3 -16 -7 -41 -10 -55 -3 -14 -8 -42 -11
-64 -3 -21 -8 -48 -10 -60 -2 -11 -6 -34 -9 -51 -3 -16 -8 -42 -11 -57 -3 -15
-7 -40 -9 -57 l-4 -30 67 -1 c37 0 117 0 177 1 61 0 116 0 123 0 54 0 154 0
211 0 38 1 74 -2 80 -5 15 -9 31 23 33 64 0 8 4 34 9 58 5 23 12 59 15 80 3
20 7 44 9 52 3 8 7 33 10 55 4 22 8 51 11 65 5 25 14 78 19 115 2 11 4 21 4
23 4 10 15 75 27 147 2 17 9 50 14 75 15 72 53 293 55 321 2 15 5 35 9 45 3
11 8 35 11 54 7 42 23 135 30 170 3 13 7 40 10 60 3 20 8 47 10 60 3 14 8 39
11 55 18 105 15 100 72 101 29 0 55 4 58 7 4 4 12 3 18 0 15 -10 106 -10 106
0 0 4 8 4 18 -1 21 -9 234 -8 250 2 7 4 12 4 12 -1 0 -10 62 -9 78 1 7 4 12 3
12 -1 0 -5 26 -7 58 -6 31 2 62 3 67 3 6 0 48 -1 95 -3 47 -1 90 -1 95 0 7 2
10 95 10 261 l0 257 -323 0 c-177 0 -322 4 -322 8 0 5 -5 5 -12 1 -14 -9 -215
-12 -229 -4 -8 6 -3 52 16 138 3 12 7 30 9 40 5 22 19 103 21 122 2 15 32 173
42 220 3 14 7 32 8 40 2 16 12 69 20 110 3 14 7 39 11 55 15 80 -48 71 506 71
l493 0 0 277 c0 152 -2 278 -5 278 -3 1 -187 2 -410 3 -246 1 -404 6 -403 12
1 5 4 29 8 54 3 25 8 52 10 60 2 8 7 33 10 55 3 23 7 50 9 62 3 11 7 38 10 59
4 22 11 64 16 94 13 72 18 98 24 140 3 19 12 76 21 125 17 95 22 125 30 178 3
17 14 82 25 142 10 61 21 126 24 145 3 19 8 46 11 60 2 13 7 42 10 65 3 22 8
47 10 55 2 8 7 35 10 60 3 25 9 59 13 75 4 17 7 41 7 54 l0 25 -333 0 c-184 1
-335 -1 -337 -4 -3 -5 -13 -63 -21 -120 -2 -19 -6 -42 -9 -50 -2 -8 -7 -33
-11 -55 -3 -22 -10 -59 -15 -83 -5 -24 -12 -62 -14 -85 -3 -23 -8 -49 -10 -57
-4 -14 -74 -413 -80 -455 -1 -11 -3 -20 -5 -20 -1 0 -3 -9 -4 -20 -3 -23 -18
-113 -22 -135 -2 -8 -6 -33 -9 -55 -8 -51 -13 -80 -15 -80 -1 0 -3 -11 -5 -25
-3 -24 -12 -80 -21 -124 -4 -22 -11 -63 -19 -110 -2 -16 -7 -31 -10 -35 -4 -3
-215 -6 -471 -6 l-465 0 6 50 c3 28 8 57 10 65 2 8 7 33 10 55 3 23 8 52 10
65 3 14 8 41 11 60 2 19 7 46 9 60 3 14 7 43 11 65 3 22 7 47 9 55 2 8 7 33
10 55 3 23 8 52 10 65 3 14 8 41 11 60 2 19 7 46 9 60 3 14 7 41 10 60 3 19 8
46 10 60 10 47 15 74 21 115 7 42 10 61 19 110 5 30 8 46 20 135 3 25 8 53 11
63 5 16 10 46 19 107 2 14 6 43 10 65 4 22 8 51 9 64 l1 25 -323 0 c-362 1
-334 7 -345 -74 -4 -25 -9 -58 -12 -75 -3 -16 -8 -40 -10 -53 -2 -12 -9 -50
-15 -85 -6 -34 -13 -71 -15 -82 -5 -32 -17 -98 -22 -120 -2 -11 -6 -33 -9 -50
-9 -55 -12 -69 -28 -160 -10 -49 -19 -103 -21 -118 -2 -16 -6 -40 -9 -55 -3
-15 -8 -39 -10 -55 -3 -15 -7 -35 -10 -45 -2 -9 -7 -39 -11 -67 -3 -27 -10
-68 -15 -90 -14 -67 -30 -148 -35 -180 -2 -17 -7 -45 -9 -63 -3 -18 -10 -58
-16 -90 l-12 -57 -721 1 c-397 1 -723 2 -725 3 -2 0 0 7 4 13 5 7 9 19 10 28
0 8 8 51 17 95 9 44 19 91 21 105 3 14 5 25 6 25 1 0 4 11 6 25 28 157 146
523 237 735 63 145 237 465 259 473 4 2 8 8 8 14 0 17 168 245 231 313 77 82
195 199 248 245 68 59 248 192 303 225 151 89 276 155 294 155 7 0 14 4 16 8
2 6 78 37 213 88 24 9 23 8 110 35 39 11 79 22 90 25 11 2 40 8 65 14 25 7 54
13 65 16 11 2 34 7 50 10 17 4 44 8 60 10 17 1 30 3 30 4 0 1 11 3 25 5 14 1
43 5 65 8 22 3 78 9 125 13 47 3 86 8 88 9 4 4 505 -4 537 -9z m-1852 -3255
c5 0 6 -5 3 -10 -3 -5 -8 -26 -12 -46 -3 -21 -8 -47 -10 -59 -2 -11 -13 -73
-25 -136 -11 -63 -22 -126 -24 -140 -3 -14 -12 -65 -21 -115 -9 -49 -16 -98
-16 -107 0 -10 -4 -20 -9 -23 -5 -4 -7 -10 -4 -15 5 -8 0 -38 -20 -125 -4 -20
-12 -20 -640 -20 l-635 0 5 340 c3 187 7 356 9 375 2 19 4 46 5 61 l1 25 693
-2 c380 -1 696 -2 700 -3z m1631 -15 c-2 -12 -6 -34 -8 -51 -3 -16 -10 -55
-16 -85 -14 -71 -21 -109 -25 -140 -3 -14 -7 -36 -9 -50 -3 -13 -8 -40 -11
-60 -3 -20 -8 -47 -11 -60 -3 -14 -7 -36 -9 -50 -2 -14 -6 -35 -9 -47 -2 -11
-8 -43 -12 -70 -5 -26 -9 -50 -9 -53 -10 -46 -18 -97 -17 -102 3 -11 37 -10
-436 -11 -232 -1 -422 2 -422 6 0 5 -6 5 -12 0 -18 -10 -68 -11 -68 0 0 4 -5
5 -11 1 -9 -5 -10 7 -4 42 8 55 13 79 15 79 1 0 3 16 5 35 2 19 6 46 10 60 3
14 8 41 11 60 3 19 7 42 9 50 3 8 7 33 11 54 3 22 10 50 15 63 5 13 5 22 1 19
-5 -3 -3 16 3 42 7 26 15 65 18 87 4 22 9 51 12 65 3 14 8 45 12 70 3 25 9 50
14 55 5 7 166 11 483 11 474 0 474 0 470 -20z"/>
</g>
</svg>
